<?xml version="1.0" standalone="no"?>
<!DOCTYPE svg PUBLIC "-//W3C//DTD SVG 20010904//EN"
 "http://www.w3.org/TR/2001/REC-SVG-20010904/DTD/svg10.dtd">
<svg version="1.0" xmlns="http://www.w3.org/2000/svg"
 width="1500.000000pt" height="1500.000000pt" viewBox="0 0 1500.000000 1500.000000"
 preserveAspectRatio="xMidYMid meet">

<g transform="translate(0.000000,1500.000000) scale(0.100000,-0.100000)"
fill="#000000" stroke="none">
<path d="M4480 13020 c-47 -4 -105 -13 -130 -19 -64 -18 -189 -60 -227 -77
-17 -8 -36 -14 -43 -14 -6 0 -8 -4 -5 -10 3 -5 16 -10 28 -10 35 0 181 -55
252 -95 106 -59 255 -177 329 -259 38 -43 93 -95 122 -117 53 -39 92 -84 81
-95 -9 -9 -57 38 -50 49 3 6 1 7 -5 3 -7 -4 -20 1 -31 11 -29 27 -89 55 -254
122 -44 17 -52 13 -21 -11 76 -59 178 -182 209 -251 13 -31 40 -73 59 -94 18
-21 51 -67 71 -103 21 -36 49 -78 62 -95 63 -78 113 -148 108 -153 -3 -3 -20
11 -37 31 -54 59 -259 247 -270 247 -5 0 2 -14 16 -31 15 -17 44 -68 66 -113
85 -177 132 -387 144 -651 6 -122 1 -114 -35 50 -34 159 -92 340 -143 450 -66
141 -208 310 -339 402 -38 27 -149 84 -222 114 -25 11 -93 27 -165 41 -65 12
-312 5 -355 -10 -16 -6 -55 -18 -85 -27 -154 -47 -291 -136 -435 -281 -68 -69
-120 -133 -161 -200 -34 -54 -61 -100 -59 -102 1 -1 42 16 91 39 129 59 125
57 179 75 28 9 96 36 152 60 56 24 108 44 115 44 19 -1 -20 -29 -71 -51 -24
-11 -42 -22 -39 -24 2 -3 31 0 64 5 62 11 385 11 467 1 26 -3 49 -10 50 -14 1
-5 -32 -20 -73 -33 -89 -29 -173 -70 -196 -96 -10 -10 -25 -18 -35 -18 -21 0
-59 -45 -59 -71 0 -17 3 -18 33 -5 123 53 269 63 362 27 48 -19 153 -51 190
-58 34 -6 24 -9 -65 -14 -58 -4 -118 -12 -135 -19 l-30 -13 35 -8 c39 -8 92
-27 165 -59 60 -27 180 -60 217 -60 15 0 30 -5 34 -11 7 -12 -14 -11 -143 7
-49 7 -61 -11 -15 -22 15 -4 32 -10 37 -14 6 -4 28 -13 50 -20 22 -7 42 -16
45 -19 3 -4 16 -12 30 -19 85 -42 232 -151 223 -165 -3 -6 -1 -7 4 -4 22 14
204 -179 186 -196 -3 -4 -14 4 -24 18 -11 13 -43 41 -72 61 -28 21 -54 41 -57
44 -18 19 -165 93 -235 118 -196 70 -399 70 -562 0 -166 -71 -329 -229 -417
-403 -73 -146 -113 -336 -102 -480 4 -44 7 -89 7 -100 1 -11 10 -60 20 -108
35 -159 52 -177 63 -67 11 112 53 229 121 334 86 135 263 327 273 296 2 -6 -8
-25 -24 -41 -52 -54 -13 -29 64 41 42 38 78 68 79 66 2 -1 -1 -16 -6 -32 -5
-16 -14 -49 -21 -74 -7 -25 -23 -77 -36 -117 -25 -75 -31 -123 -15 -123 6 0
31 26 56 58 44 54 171 172 186 172 4 0 18 17 30 38 27 44 118 142 131 142 6 0
-13 -25 -41 -56 -55 -60 -68 -101 -28 -88 22 7 155 88 212 130 64 47 127 67
224 72 69 4 92 2 87 -7 -4 -6 -13 -11 -20 -11 -23 0 -347 -326 -502 -505 -99
-116 -339 -426 -358 -465 -4 -8 -36 -60 -71 -115 -116 -182 -318 -612 -415
-880 -18 -49 -36 -99 -40 -110 -5 -11 -17 -40 -28 -65 -26 -62 -38 -97 -52
-152 -7 -26 -15 -46 -19 -44 -3 2 -6 -8 -7 -22 -1 -29 -31 -155 -44 -187 -5
-11 -15 -60 -24 -110 -8 -49 -23 -119 -31 -155 -40 -160 -93 -460 -120 -675
-8 -66 -19 -149 -24 -185 -6 -36 -13 -91 -16 -123 l-6 -57 -142 -69 c-153 -74
-315 -141 -341 -141 -25 0 -24 -5 39 -145 7 -16 28 -74 46 -127 l32 -98 106
-2 c58 -2 131 -3 161 -3 l55 0 7 -335 c7 -329 15 -493 39 -777 6 -78 9 -148 6
-156 -3 -7 -41 -21 -88 -31 -46 -10 -104 -24 -129 -31 -25 -7 -62 -17 -83 -20
-53 -10 -41 -29 24 -37 30 -4 88 -12 129 -18 71 -10 222 -26 475 -50 61 -5
153 -15 205 -20 95 -11 228 -18 825 -44 176 -8 349 -17 385 -21 36 -3 283 -10
550 -16 267 -5 656 -14 865 -19 512 -12 2779 -12 3290 0 629 15 1454 50 1670
70 61 5 184 14 275 20 91 6 224 17 295 24 230 25 399 46 455 56 30 6 81 13
113 17 109 15 79 28 -173 74 -202 37 -419 62 -808 93 -154 12 -205 25 -175 44
25 16 72 126 109 261 3 7 11 10 20 7 9 -3 33 -6 54 -6 33 0 40 -4 53 -33 26
-54 48 -60 192 -54 139 6 146 10 186 74 19 31 24 33 77 33 31 0 68 7 82 14 14
8 47 25 73 37 29 13 54 33 62 50 18 34 30 154 21 202 -6 33 -10 36 -49 42
l-42 7 3 266 c2 147 5 273 7 280 3 9 67 12 275 12 l270 0 16 38 c9 20 34 82
55 137 22 55 43 107 48 115 5 9 12 31 16 50 4 19 11 41 16 50 4 8 17 49 29 90
12 41 25 82 29 90 4 8 16 41 26 74 l18 58 -240 237 c-132 130 -307 306 -389
391 -82 85 -176 176 -209 201 -60 47 -110 97 -240 243 -75 85 -199 245 -193
251 2 2 32 8 68 13 93 15 104 18 107 29 5 14 -64 41 -127 49 -32 4 -62 16 -80
30 -31 26 -51 31 -48 12 4 -16 -38 -15 -152 6 -47 8 -125 20 -175 26 -49 6
-137 17 -195 25 -58 8 -154 20 -215 26 -60 6 -148 15 -195 20 -122 13 -420 37
-600 49 -85 5 -200 14 -255 20 -55 6 -118 10 -140 10 -22 0 -62 7 -90 16 -41
12 -95 14 -310 10 -160 -3 -245 -1 -220 4 23 5 -161 6 -445 3 -548 -7 -611 -8
-765 -22 -60 -6 -229 -17 -375 -26 -146 -8 -276 -18 -290 -20 -14 -3 -83 -12
-155 -21 -431 -51 -832 -131 -893 -177 -7 -5 -15 -7 -19 -3 -9 8 52 71 105
107 23 17 65 58 93 92 29 34 99 114 157 177 58 63 146 160 196 215 258 283
376 405 393 405 15 0 12 -36 -12 -155 -35 -174 -44 -225 -49 -290 -8 -97 -43
-196 -103 -293 -42 -67 -42 -76 0 -68 17 4 103 16 190 26 169 21 370 33 862
55 77 3 149 8 160 10 13 3 34 32 60 82 22 42 66 121 98 176 32 54 57 101 55
103 -2 2 -21 -14 -42 -36 -21 -22 -44 -40 -51 -40 -7 0 -31 -19 -53 -42 -23
-23 -44 -39 -48 -36 -8 8 67 136 122 208 37 49 110 167 233 378 23 39 47 72
53 72 12 0 9 -15 -32 -174 -23 -92 -23 -89 -11 -81 5 3 15 22 22 43 6 20 23
62 37 92 27 58 107 263 123 317 8 27 21 38 72 62 70 33 176 124 322 279 88 92
101 103 129 100 29 -3 31 -5 30 -43 -2 -44 -20 -131 -33 -155 -4 -8 -18 -49
-30 -90 -13 -41 -29 -89 -37 -107 -16 -36 -17 -43 -5 -43 5 0 14 12 20 28 14
32 77 109 84 102 3 -3 -14 -66 -38 -140 -23 -74 -53 -171 -65 -215 -34 -121
-51 -178 -61 -200 -5 -11 -25 -63 -44 -115 -19 -52 -39 -104 -44 -115 -5 -11
-16 -41 -25 -66 -18 -50 -72 -129 -88 -129 -5 0 -1 15 9 32 25 44 56 128 50
135 -3 2 -17 -12 -30 -34 -30 -45 -194 -209 -202 -201 -3 3 3 21 14 39 11 19
31 63 44 99 14 36 41 100 60 143 20 42 33 77 29 77 -5 0 -28 -21 -52 -46 -78
-80 -227 -172 -359 -223 -43 -16 -71 -38 -143 -116 -49 -52 -96 -95 -104 -95
-8 0 -14 -5 -14 -10 0 -6 29 -8 78 -5 42 3 237 10 432 16 356 11 769 2 930
-21 63 -9 425 -34 505 -35 l40 0 3 51 c2 37 9 57 25 72 30 28 165 94 177 87
25 -15 5 -35 -58 -59 -105 -40 -114 -49 -110 -108 l3 -51 50 -12 c28 -7 112
-15 187 -18 l137 -6 6 29 c5 22 21 38 63 64 47 28 144 81 175 94 4 2 7 -9 7
-25 0 -26 -6 -31 -72 -56 -87 -32 -134 -66 -125 -90 4 -12 18 -17 42 -17 23 0
35 -5 35 -14 0 -10 31 -15 131 -20 131 -7 390 -35 547 -60 45 -7 82 -9 82 -5
0 44 -268 326 -388 408 -69 47 -137 112 -178 168 -68 97 -183 244 -249 320
-38 44 -84 101 -102 125 -51 69 -137 158 -153 158 -8 0 -40 -18 -70 -40 -145
-105 -264 -153 -322 -131 -32 12 -67 57 -107 137 -17 34 -39 72 -51 85 -11 13
-49 62 -84 109 -35 47 -72 92 -82 101 -11 9 -57 61 -104 115 -47 54 -119 134
-161 177 l-75 77 -56 0 c-30 0 -58 -3 -62 -7 -4 -5 -12 -9 -17 -9 -5 -1 -13
-2 -17 -3 -28 -4 -127 -83 -187 -148 -88 -96 -218 -228 -225 -229 -3 0 -12 -3
-20 -7 -8 -3 -26 -7 -40 -10 -14 -2 -34 -8 -44 -12 -15 -7 -18 -5 -12 6 9 16
-30 -26 -77 -85 -18 -22 -59 -68 -91 -103 -49 -53 -69 -66 -115 -80 -58 -16
-65 -19 -117 -46 -17 -9 -47 -18 -67 -21 -19 -2 -45 -9 -57 -16 -12 -6 -28 -9
-36 -6 -16 6 -100 -72 -169 -158 -41 -51 -166 -179 -245 -253 -51 -46 -60 -45
-97 17 -22 35 -90 104 -148 149 -40 30 -147 125 -206 181 -62 60 -76 66 -134
60 -40 -4 -60 -14 -98 -45 -26 -21 -47 -42 -47 -45 0 -4 -20 -29 -45 -56 -25
-27 -74 -80 -108 -119 -34 -38 -129 -136 -210 -217 -143 -143 -150 -148 -190
-148 -75 -1 -199 -41 -239 -78 -16 -14 -28 -29 -28 -33 0 -13 -82 -129 -91
-129 -5 0 -9 -4 -9 -10 0 -10 -36 -50 -45 -50 -3 0 -16 -11 -28 -24 -13 -13
-38 -27 -57 -30 -19 -3 -48 -8 -64 -11 -37 -5 -55 -18 -151 -104 -43 -39 -84
-71 -90 -71 -5 0 -27 -15 -47 -33 -20 -17 -80 -70 -134 -117 -53 -47 -120
-108 -148 -135 -106 -104 -250 -212 -286 -215 -8 0 -42 -13 -74 -28 -46 -22
-72 -44 -115 -96 -60 -73 -113 -110 -305 -211 -147 -77 -169 -89 -328 -188
-87 -54 -176 -110 -310 -198 -31 -20 -58 -33 -60 -28 -6 17 20 456 36 604 16
158 29 241 52 340 7 33 22 107 34 165 11 58 30 152 44 210 13 58 27 123 30
145 4 22 14 60 21 85 50 163 89 287 96 300 4 8 17 44 30 80 12 36 25 70 29 75
4 6 11 21 15 35 13 41 77 168 227 450 31 58 70 130 87 160 17 30 31 65 31 78
0 12 6 22 14 22 8 0 37 32 63 71 64 95 143 198 233 303 65 77 304 316 316 316
6 0 15 -20 18 -44 9 -59 6 -232 -5 -270 -5 -17 -12 -72 -15 -123 -7 -92 -2
-107 24 -81 23 23 26 -4 5 -45 -38 -75 -63 -135 -63 -155 0 -22 -34 -132 -50
-162 -14 -27 -7 -25 42 10 22 17 46 30 52 30 15 0 121 100 128 120 3 8 8 12
12 9 4 -4 -12 -46 -35 -95 -82 -178 -89 -193 -89 -199 0 -5 -114 -180 -145
-221 -21 -29 6 -23 55 11 89 62 75 33 -32 -69 -177 -169 -211 -195 -336 -258
l-95 -48 79 5 c189 13 217 16 247 29 18 7 49 16 71 20 21 4 46 11 55 16 9 5
45 18 81 30 160 54 243 103 341 201 96 97 176 225 206 334 3 11 9 25 14 30 12
16 31 209 29 304 -1 80 -12 142 -47 261 -40 139 -149 283 -284 376 -41 28 -82
53 -91 57 -18 7 -25 27 -9 27 5 0 26 -7 47 -15 156 -63 228 -120 337 -268 27
-37 52 -65 55 -63 2 3 -3 26 -12 52 -15 46 -14 67 3 48 55 -63 127 -166 166
-239 73 -139 78 -138 45 14 -12 52 -19 98 -17 104 2 6 18 -36 36 -94 18 -57
36 -111 39 -119 3 -8 6 -17 6 -20 1 -6 108 -223 113 -229 11 -14 24 25 34 94
23 159 25 171 33 153 4 -10 16 -53 26 -95 46 -195 54 -223 61 -223 7 0 15 -22
44 -125 7 -27 19 -69 26 -92 17 -60 4 -262 -25 -396 -13 -59 -20 -109 -16
-112 9 -6 220 212 220 227 0 6 11 25 24 42 13 17 24 36 25 41 1 6 8 19 16 31
7 12 25 50 40 85 14 35 30 73 36 84 5 11 11 29 13 40 3 11 10 40 16 65 6 25
15 65 20 90 11 58 11 271 0 335 -16 87 -27 139 -42 185 -8 25 -15 49 -16 53
-2 18 -48 105 -80 152 -60 90 -146 191 -191 226 -89 68 -183 129 -209 135 -15
4 -38 13 -52 20 -36 18 -120 44 -145 44 -11 0 -27 6 -34 13 -17 17 -327 16
-401 -2 -30 -7 -79 -26 -107 -42 -70 -39 -68 -22 3 20 64 39 143 56 309 67 61
4 115 10 120 14 14 11 215 10 215 -1 0 -5 18 -9 39 -9 22 0 42 -4 46 -10 3 -5
13 -6 21 -3 8 3 25 0 38 -6 12 -7 41 -11 64 -9 l41 3 -48 40 c-27 22 -82 62
-122 89 -40 28 -68 51 -62 53 5 2 41 -17 79 -42 79 -53 254 -140 301 -150 17
-3 51 -20 73 -36 48 -35 160 -89 184 -89 28 0 -71 144 -170 247 -52 53 -92 98
-90 101 2 2 40 -17 84 -42 43 -25 83 -46 87 -46 15 0 174 -80 240 -120 36 -22
68 -40 71 -40 3 0 15 -11 26 -25 11 -14 25 -25 32 -25 6 0 18 -8 26 -18 123
-146 160 -203 239 -357 38 -76 53 -118 61 -175 11 -74 25 -107 34 -79 11 29
27 137 37 244 9 102 -1 341 -16 365 -3 5 -10 32 -15 62 -6 29 -17 69 -26 88
-8 19 -20 46 -26 60 -52 126 -117 221 -217 320 -72 71 -215 180 -236 180 -4 0
-30 11 -58 24 -208 96 -452 119 -692 66 -27 -6 -58 -15 -67 -20 -10 -6 -23
-10 -29 -10 -21 0 -140 -60 -198 -99 -91 -62 -266 -236 -349 -346 -85 -114
-88 -103 -7 21 30 45 55 87 55 92 0 5 6 15 14 21 17 14 136 253 136 273 0 8 4
18 9 24 4 5 17 43 27 84 37 147 22 506 -26 615 -5 11 -23 53 -40 94 -68 164
-183 296 -336 385 -52 31 -98 56 -102 56 -4 0 -19 6 -33 14 -67 35 -281 80
-354 75 -11 -1 -58 -5 -105 -9z m4517 -2992 c-3 -8 -6 -5 -6 6 -1 11 2 17 5
13 3 -3 4 -12 1 -19z m-987 -485 c-38 -54 -91 -136 -117 -182 -26 -47 -62 -99
-79 -115 -17 -17 -41 -47 -54 -66 -32 -49 -132 -150 -147 -150 -17 0 -16 9 1
29 19 22 66 113 66 129 0 7 -39 -19 -87 -58 -48 -38 -90 -70 -94 -70 -4 0 -18
14 -30 31 l-22 32 44 39 c24 21 74 63 110 93 65 53 112 103 222 235 45 55 64
69 118 90 35 14 78 33 94 42 17 10 33 17 37 18 4 0 -24 -44 -62 -97z m1407
-540 c2 -5 -36 -29 -84 -52 -48 -24 -109 -58 -135 -77 -37 -26 -48 -30 -48
-18 0 26 50 64 150 115 94 48 111 52 117 32z m-3409 -122 c10 -6 3 -27 -31
-92 -72 -136 -91 -171 -120 -219 l-26 -45 27 -12 c73 -30 323 -73 425 -73 116
0 238 -13 202 -21 -16 -4 -49 -7 -73 -8 -23 0 -55 -9 -69 -18 -26 -17 -27 -17
-20 0 12 31 -26 19 -104 -31 -41 -27 -121 -70 -179 -96 -203 -91 -425 -234
-573 -370 -65 -59 -120 -106 -123 -103 -3 3 61 75 143 159 295 308 476 508
459 508 -22 0 -189 -89 -278 -148 -197 -131 -453 -289 -485 -300 -34 -11 -42
-3 -20 20 18 19 68 98 62 98 -8 0 -149 -115 -165 -135 -7 -9 -27 -23 -44 -32
l-31 -16 38 42 c96 106 -12 25 -200 -150 -79 -74 -122 -104 -104 -72 5 10 46
54 90 98 45 44 81 84 81 89 0 5 -10 0 -22 -11 -13 -11 -30 -23 -38 -28 -20 -9
83 89 145 140 27 22 88 74 135 115 47 42 107 93 133 114 26 21 96 81 155 133
141 125 145 127 181 115 23 -8 35 -6 57 8 27 16 174 163 294 293 56 60 58 61
78 48z m1726 -160 c3 -21 3 -67 -1 -102 -9 -86 -21 -50 -22 64 -1 89 11 110
23 38z m164 -38 c-10 -2 -26 -2 -35 0 -10 3 -2 5 17 5 19 0 27 -2 18 -5z
m1392 -36 c25 -2 50 -36 50 -71 0 -17 -5 -18 -57 -11 -102 13 -647 23 -1044
18 l-386 -5 -6 34 c-2 18 -2 37 0 42 4 6 1347 0 1443 -7z m-1646 -9 c2 -7 7
-27 13 -44 l10 -31 -266 -6 c-146 -4 -322 -12 -391 -17 -110 -9 -863 -19 -856
-12 11 11 744 73 1091 93 99 6 207 14 240 18 95 13 155 13 159 -1z m2126 -18
c350 -16 758 -44 1030 -71 58 -6 137 -13 175 -17 l70 -6 -80 -13 c-77 -12
-417 -19 -434 -9 -4 3 -82 8 -172 11 -90 4 -231 11 -314 16 -118 8 -468 26
-567 28 -14 1 -18 10 -18 40 l0 39 43 -4 c23 -2 143 -9 267 -14z m-343 -52
c-3 -7 -5 -2 -5 12 0 14 2 19 5 13 2 -7 2 -19 0 -25z m-229 -84 c103 -5 151
-11 149 -18 -4 -13 -91 -21 -116 -11 -27 12 -510 22 -1124 24 -194 1 -266 4
-261 12 7 12 1052 6 1352 -7z m-1605 -5 c-7 -7 -106 -12 -289 -14 l-279 -3
243 8 c133 4 246 10 249 14 3 3 24 6 47 6 29 0 37 -3 29 -11z m2187 -20 c348
-27 355 -28 120 -21 -129 4 -286 7 -348 7 -102 0 -112 2 -112 18 0 20 25 20
340 -4z m1610 -28 c0 -11 -162 -19 -230 -11 -28 3 5 7 85 10 72 3 133 7 138 8
4 1 7 -2 7 -7z m-432 -18 c-21 -2 -57 -2 -80 0 -24 2 -7 4 37 4 44 0 63 -2 43
-4z m-3306 -131 c-2 -24 1 -49 7 -56 9 -10 -70 -14 -417 -20 -235 -4 -449 -11
-477 -15 -27 -5 706 -8 1630 -8 924 0 1651 3 1615 8 -36 4 -179 8 -318 9 -243
1 -252 2 -242 20 15 27 12 57 -5 64 -8 3 -15 13 -15 21 0 9 4 13 10 10 5 -3
184 -10 397 -15 432 -11 713 -24 848 -40 50 -5 131 -15 180 -21 50 -5 131 -16
180 -24 50 -7 140 -20 200 -29 111 -17 144 -25 224 -55 48 -17 72 -48 30 -38
-60 15 -1063 22 -2959 21 -1973 0 -2120 -2 -2550 -29 l-85 -6 37 34 c72 65
260 140 413 163 50 8 180 19 290 25 110 5 256 13 325 18 69 4 251 8 405 7
l280 -1 -3 -43z m1181 29 l437 -1 0 -50 0 -50 -714 0 -715 0 6 35 c4 25 1 41
-11 54 -9 9 -14 20 -12 22 2 2 132 1 288 -2 155 -4 480 -7 721 -8z m-1401
-628 c1 -208 2 -391 2 -408 l1 -30 -877 -3 c-651 -1 -878 1 -878 9 0 7 9 27
21 45 l21 34 249 0 c235 0 249 1 249 18 0 19 34 139 50 177 4 11 27 76 49 145
70 216 97 290 109 302 7 7 12 8 12 2 0 -14 -41 -137 -50 -149 -4 -5 -11 -26
-15 -45 -4 -19 -11 -39 -14 -45 -4 -5 -18 -41 -30 -80 -12 -38 -26 -79 -31
-90 -8 -18 -22 -66 -50 -175 -5 -19 -10 -41 -10 -47 0 -10 102 -13 476 -13
l476 0 34 34 34 34 0 271 0 272 -26 24 c-18 16 -43 26 -82 31 -31 4 -277 4
-545 1 -394 -6 -493 -10 -515 -21 -33 -17 -88 -93 -195 -270 -129 -213 -182
-317 -170 -335 8 -13 2 -25 -27 -57 -20 -22 -41 -48 -46 -57 -9 -16 -28 -17
-179 -15 l-168 3 63 38 c66 39 93 46 84 23 -8 -21 14 -30 75 -27 62 2 77 12
106 68 11 21 34 61 52 90 18 29 33 54 33 57 0 3 20 40 45 82 25 41 45 78 45
80 0 2 20 37 43 77 107 177 128 218 122 237 -9 27 -62 35 -100 16 -34 -18 -59
-5 -35 18 25 24 335 39 955 46 314 3 585 7 603 8 l32 2 2 -377z m3248 362
c393 -2 743 -7 777 -11 l63 -6 19 -61 c11 -34 44 -134 74 -222 53 -157 66
-198 109 -340 11 -38 27 -87 34 -108 8 -20 14 -42 14 -47 0 -13 -4297 -14
-4305 -1 -3 6 -8 189 -12 408 l-6 398 1259 -2 c692 -2 1581 -5 1974 -8z
m-4756 -104 c3 -5 -50 -103 -117 -217 -68 -115 -145 -247 -171 -294 -73 -128
-67 -123 -153 -110 -10 1 0 36 15 58 11 15 74 119 142 232 68 113 133 219 145
235 72 101 76 105 105 105 16 0 31 -4 34 -9z m1296 -30 c6 -12 10 -111 10
-251 0 -201 -2 -236 -17 -261 -10 -16 -24 -30 -33 -30 -54 -6 -896 4 -903 10
-4 4 8 41 27 82 18 41 48 117 66 169 32 94 103 238 124 252 44 29 211 44 513
46 191 2 203 1 213 -17z m-870 -19 c0 -10 -13 -56 -29 -102 -16 -47 -47 -141
-69 -210 -60 -184 -66 -197 -103 -205 -17 -4 -56 -4 -88 0 -31 4 -100 7 -153
6 -54 -1 -98 2 -98 6 0 15 89 163 191 322 20 31 57 89 83 129 l46 72 110 0
c99 0 110 -2 110 -18z m-2140 -446 c0 -2 -7 -7 -16 -10 -8 -3 -12 -2 -9 4 6
10 25 14 25 6z m1390 -244 c0 -4 -9 -33 -20 -65 -11 -31 -20 -66 -20 -77 0
-14 -28 -38 -99 -85 -55 -36 -117 -86 -139 -112 -45 -55 -132 -183 -132 -195
0 -16 -17 -7 -27 15 -11 23 -7 61 17 167 14 64 67 237 81 262 5 10 9 24 9 32
0 8 14 26 31 40 30 25 35 26 165 26 74 0 134 -4 134 -8z m1840 -22 c0 -22 -5
-30 -17 -31 -10 0 -310 -4 -668 -9 -483 -6 -685 -12 -785 -24 -74 -9 -144 -19
-155 -22 -11 -3 -47 -11 -80 -19 -33 -7 -79 -19 -103 -25 -23 -7 -45 -10 -48
-8 -7 7 12 85 31 131 l15 37 905 0 905 0 0 -30z m4362 -5 c14 -49 16 -83 29
-498 10 -355 9 -421 -5 -406 -4 4 -24 471 -30 719 l-4 155 -2163 5 -2164 5 -3
28 -3 27 2167 -2 2168 -3 8 -30z m-4370 -720 c-8 -99 -9 -59 -10 235 -1 195 2
366 6 380 10 37 14 -474 4 -615z m4178 545 c0 -6 -75 -10 -202 -11 -112 0
-224 -2 -250 -4 -37 -3 -48 -1 -48 10 0 13 38 15 250 15 160 0 250 -4 250 -10z
m0 -100 c0 -6 -90 -10 -249 -10 -156 0 -252 4 -256 10 -4 7 82 10 249 10 164
0 256 -4 256 -10z m-4342 -24 c29 -28 2 -34 -158 -35 -135 -2 -160 1 -160 13
0 21 12 26 83 36 85 12 217 4 235 -14z m3367 -355 c-4 -62 -10 -109 -14 -103
-3 5 -3 68 1 139 3 70 7 160 9 198 3 66 3 65 7 -25 2 -52 0 -146 -3 -209z
m975 289 c0 -6 -90 -10 -250 -10 -160 0 -250 4 -250 10 0 6 90 10 250 10 160
0 250 -4 250 -10z m-4402 -17 c-26 -2 -71 -2 -100 0 -29 2 -8 3 47 3 55 0 79
-1 53 -3z m-1823 -103 c0 -42 -2 -45 -28 -47 -33 -2 -44 18 -29 53 7 13 8 24
3 24 -16 0 -41 -49 -34 -66 4 -12 3 -15 -5 -10 -16 9 -15 69 0 84 7 7 31 11
53 10 l40 -3 0 -45z m6225 30 c0 -6 -90 -10 -250 -10 -160 0 -250 4 -250 10 0
6 90 10 250 10 160 0 250 -4 250 -10z m-6462 -205 c-24 -151 -37 -287 -38
-391 0 -111 5 -115 152 -123 69 -4 113 -10 115 -17 3 -8 -39 -10 -154 -6 -87
2 -160 6 -162 8 -2 2 1 16 8 31 7 16 17 96 21 178 9 162 23 288 41 375 16 78
19 85 28 74 5 -5 0 -63 -11 -129z m6462 115 c0 -6 -90 -10 -249 -10 -156 0
-252 4 -256 10 -4 7 82 10 249 10 164 0 256 -4 256 -10z m0 -100 c0 -6 -90
-10 -250 -10 -160 0 -250 4 -250 10 0 6 90 10 250 10 160 0 250 -4 250 -10z
m-6294 -51 c23 -22 24 -28 24 -166 0 -84 -5 -153 -11 -165 -17 -32 -73 -50
-118 -38 -59 16 -65 37 -58 197 3 76 8 145 11 153 20 50 108 61 152 19z m-302
-101 c-3 -40 -10 -97 -15 -127 -5 -30 -9 -90 -9 -132 l0 -78 -37 -10 c-21 -6
-47 -9 -58 -7 -42 7 -55 -20 -55 -112 0 -184 56 -353 130 -394 29 -15 47 -18
100 -13 36 4 108 5 160 4 52 -1 124 -2 160 0 36 1 143 4 238 6 155 3 176 5
195 23 18 16 31 18 77 13 l55 -6 11 -50 c6 -27 16 -63 22 -78 7 -16 12 -34 12
-42 0 -7 20 -44 45 -81 25 -37 43 -69 40 -72 -6 -6 -481 14 -675 28 -317 23
-631 85 -647 126 -3 8 0 21 7 29 19 23 -6 19 -68 -10 -30 -14 -58 -25 -64 -25
-5 0 4 25 20 55 17 30 26 55 22 55 -5 0 -39 -23 -76 -50 -68 -52 -86 -57 -66
-17 6 12 18 38 26 57 21 45 63 90 109 115 47 25 49 47 5 39 -64 -11 -99 -26
-144 -61 -25 -19 -48 -32 -50 -30 -11 11 53 240 89 317 19 42 75 106 117 135
65 45 37 41 -42 -5 -114 -66 -143 -98 -218 -235 -45 -83 -50 -86 -35 -18 22
96 52 180 102 281 30 62 26 76 -9 30 -38 -50 -58 -93 -98 -211 -24 -68 -40
-102 -44 -92 -3 9 -4 21 -1 26 3 5 10 69 15 143 9 128 18 173 61 295 22 61 19
73 -12 45 -44 -39 -135 -284 -146 -391 -3 -30 -9 -56 -13 -58 -4 -2 -15 22
-24 53 -24 76 -52 136 -92 199 -40 63 -101 129 -110 120 -4 -4 -2 -12 3 -19 6
-7 14 -29 18 -48 4 -19 11 -39 15 -45 4 -5 11 -26 15 -45 4 -19 11 -41 16 -50
38 -74 66 -290 37 -290 -8 0 -20 17 -27 38 -38 105 -160 266 -236 311 -19 11
-35 19 -35 16 0 -2 18 -24 40 -50 22 -25 50 -65 64 -88 28 -49 80 -203 72
-215 -2 -4 -1 -26 4 -48 15 -70 22 -164 13 -164 -5 0 -17 16 -27 36 -23 50
-109 160 -113 147 -2 -6 10 -44 26 -83 17 -40 31 -87 31 -106 0 -29 -3 -34
-24 -34 -24 0 -47 33 -61 93 -4 15 -12 30 -17 34 -11 6 -10 1 7 -89 7 -33 5
-37 -23 -52 -39 -20 -44 -20 -41 2 4 30 -22 162 -32 157 -5 -3 -6 -25 -3 -48
5 -46 -5 -96 -21 -98 -10 0 -27 51 -46 141 -6 25 -14 54 -19 65 -5 11 -12 40
-15 65 -4 25 -11 59 -16 75 -12 42 -37 223 -54 390 -7 77 -16 169 -20 205 l-7
66 233 -4 c190 -2 1133 10 1216 16 21 2 22 -1 17 -70z m2061 42 c12 -5 -119
-9 -315 -9 -402 -1 -482 -13 -582 -83 -16 -11 -28 -15 -28 -10 0 10 54 48 108
76 18 9 58 21 90 25 76 11 701 12 727 1z m4764 -222 c23 -64 25 -165 6 -231
-10 -34 -24 -69 -32 -77 -11 -12 -15 -12 -30 3 -26 26 -32 276 -9 313 23 34
52 31 65 -8z m-4750 -42 c34 -46 111 -186 111 -201 0 -15 -28 25 -58 84 -32
60 -58 103 -99 161 -10 13 -12 21 -5 16 7 -4 30 -31 51 -60z m3991 -31 l25
-15 -30 7 c-16 5 -223 8 -458 8 -236 0 -418 3 -405 7 13 3 208 6 433 7 344 0
414 -2 435 -14z m-5059 -117 c-26 -51 -57 -118 -70 -148 -13 -30 -30 -64 -38
-75 -14 -19 -15 -19 -8 5 19 63 145 310 159 310 2 0 -17 -42 -43 -92z m5196
-51 c19 -40 39 -84 44 -99 21 -65 27 -88 23 -88 -5 0 -32 59 -69 150 -15 36
-30 70 -34 75 -14 19 -21 46 -10 40 5 -4 26 -39 46 -78z m-1151 25 c-13 -21
-47 -84 -75 -140 -49 -98 -72 -132 -50 -74 34 89 124 252 140 252 5 0 -2 -17
-15 -38z m-3364 7 c156 -61 243 -190 243 -359 0 -76 -4 -93 -33 -152 -37 -75
-101 -139 -178 -178 -43 -22 -62 -25 -154 -25 -96 0 -110 2 -160 28 -76 40
-143 108 -177 181 -25 55 -28 71 -27 161 1 88 4 107 29 158 40 84 142 169 235
198 52 16 167 10 222 -12z m-1255 -69 c40 -118 41 -119 221 -127 176 -7 203
-25 51 -33 l-94 -6 95 -4 95 -5 -3 -35 c-2 -19 -5 -36 -7 -38 -2 -2 -607 17
-729 23 -43 3 -56 16 -56 61 l0 31 137 6 c75 4 171 7 214 7 43 0 80 4 83 8 4
7 -16 84 -34 127 -18 43 -22 67 -10 63 6 -2 23 -37 37 -78z m5247 63 c233 -63
343 -317 230 -533 -29 -56 -39 -68 -89 -106 -100 -75 -225 -101 -336 -68 -130
39 -219 133 -255 271 -18 68 -18 104 0 171 28 103 87 180 176 228 100 54 176
64 274 37z m-5774 -75 c0 -75 24 -226 44 -272 18 -44 19 -46 8 -46 -14 0 -40
54 -56 118 -18 71 -22 252 -6 252 6 0 10 -24 10 -52z m7008 -148 c4 -87 8 -85
-190 -85 -213 0 -261 14 -250 70 10 53 31 60 206 66 88 3 177 5 196 5 l35 -1
3 -55z m-2063 -10 c17 -4 26 -8 20 -9 -41 -4 -898 -10 -1677 -10 -618 -1 -938
-4 -938 -11 0 -5 17 -10 38 -10 30 -1 34 -2 19 -11 -30 -17 -72 -7 -75 19 -2
12 -2 23 0 24 2 1 487 5 1078 8 591 3 1172 6 1290 6 118 1 229 -2 245 -6z
m-5811 -87 c25 -106 31 -211 17 -256 -7 -21 -16 -37 -20 -37 -3 0 -5 46 -3
103 4 90 -1 135 -24 240 -4 15 -2 27 3 27 5 0 17 -35 27 -77z m5806 27 c0 -6
-23 -9 -52 -8 l-53 1 45 7 c25 4 48 8 53 8 4 1 7 -2 7 -8z m-553 -6 c-3 -3
-12 -4 -19 -1 -8 3 -5 6 6 6 11 1 17 -2 13 -5z m176 -1 c-24 -2 -62 -2 -85 0
-24 2 -5 4 42 4 47 0 66 -2 43 -4z m2037 -24 c0 -6 -4 -7 -10 -4 -5 3 -10 11
-10 16 0 6 5 7 10 4 6 -3 10 -11 10 -16z m-5755 -18 c-12 -12 -65 -26 -65 -17
0 3 15 10 33 15 43 12 42 12 32 2z m6113 4 c-10 -10 -337 -15 -343 -5 -4 6 60
10 171 10 98 0 175 -2 172 -5z m-2330 -165 c36 -119 86 -202 151 -247 22 -16
40 -32 41 -37 0 -6 -263 -7 -657 -3 -362 4 -963 7 -1335 7 -372 0 -679 4 -682
9 -3 5 4 17 15 27 27 24 74 116 89 174 6 25 16 62 21 83 l10 37 1167 -2 1167
-3 13 -45z"/>
<path d="M5547 8478 c-16 -22 -23 -38 -16 -36 18 6 62 65 52 71 -4 3 -21 -13
-36 -35z"/>
<path d="M7982 8000 l-344 -5 -19 -24 c-18 -22 -19 -42 -19 -298 l0 -275 35
-35 35 -35 361 4 361 3 34 37 34 38 0 270 0 271 -25 24 c-15 15 -36 25 -54 25
-16 0 -35 1 -43 3 -7 1 -168 0 -356 -3z m442 -56 c3 -9 6 -128 6 -265 l0 -250
-25 -24 -24 -25 -303 6 -303 6 -53 32 c-64 37 -86 73 -84 141 1 68 41 234 63
266 23 32 78 56 151 64 29 4 66 11 82 16 29 9 163 24 356 39 52 4 102 8 111 8
9 1 20 -5 23 -14z"/>
<path d="M7995 7763 c-63 -5 -75 -16 -75 -67 0 -88 -3 -86 135 -86 l122 0 7
66 c5 45 3 71 -5 80 -11 14 -64 16 -184 7z m155 -50 c0 -71 -4 -73 -101 -73
-86 0 -89 1 -89 23 1 20 2 20 13 5 12 -15 14 -15 25 3 17 26 6 42 -19 29 -16
-9 -19 -7 -19 9 0 18 8 21 73 24 39 1 82 4 95 5 18 2 22 -3 22 -25z"/>
<path d="M10760 7999 c-17 -4 -40 -15 -50 -24 -19 -17 -20 -33 -20 -296 l0
-279 29 -32 29 -33 443 -3 c244 -2 440 0 436 4 -9 9 -330 38 -622 58 -110 7
-208 16 -218 21 -10 4 -27 25 -37 46 -17 33 -20 59 -20 196 0 186 11 222 70
236 19 5 51 12 70 17 46 12 240 36 413 51 117 10 140 10 151 -2 16 -18 39 -75
65 -164 12 -38 34 -113 51 -165 16 -52 30 -101 30 -107 0 -7 5 -13 10 -13 13
0 13 -6 -11 86 -11 44 -25 97 -30 119 -6 22 -23 80 -40 128 -16 49 -29 94 -29
100 0 7 -7 21 -16 32 -14 19 -30 20 -344 25 -181 3 -343 2 -360 -1z"/>
<path d="M8665 7978 l-26 -23 -1 -277 c-2 -371 -24 -348 329 -348 266 0 451
12 482 31 43 28 46 48 46 326 l0 265 -28 24 -28 24 -374 0 c-373 0 -374 0
-400 -22z m783 -30 c9 -9 12 -77 12 -246 l0 -234 -27 -39 -28 -40 -205 6
c-113 4 -238 11 -278 16 -40 5 -97 9 -127 9 -48 0 -56 3 -83 35 -38 43 -45 80
-40 198 3 82 7 99 34 142 55 89 77 96 389 130 77 9 163 19 190 24 77 13 150
12 163 -1z"/>
<path d="M8951 7756 c-7 -8 -11 -36 -9 -63 l3 -48 119 -3 c132 -3 136 -2 136
60 0 68 0 68 -125 68 -85 0 -115 -3 -124 -14z m209 -35 c0 -11 3 -26 6 -35 5
-12 0 -16 -19 -16 -46 0 -87 12 -87 26 0 9 -11 14 -30 14 -43 0 -45 -1 -42
-22 2 -10 -2 -18 -7 -18 -11 0 -13 7 -13 35 0 8 0 20 1 25 0 6 40 10 96 10 87
0 95 -2 95 -19z"/>
<path d="M9685 7974 l-25 -27 0 -266 c0 -246 2 -268 20 -298 14 -23 29 -34 56
-39 60 -11 708 2 733 15 52 28 56 47 59 316 3 249 3 250 -20 285 l-24 35 -387
3 -388 2 -24 -26z m795 -33 c11 -22 14 -447 4 -501 -11 -52 -54 -72 -139 -66
-105 8 -421 36 -495 44 -89 10 -149 51 -150 102 0 78 31 211 70 295 5 11 14
32 19 46 8 23 18 27 108 42 54 9 143 19 198 23 55 4 132 12 170 19 39 7 100
14 137 14 57 1 69 -2 78 -18z"/>
<path d="M10054 7758 l-82 -10 -12 -43 c-7 -25 -10 -56 -6 -70 l6 -25 118 0
c78 0 122 4 130 12 7 7 12 40 12 80 l0 68 -42 -1 c-24 -1 -80 -6 -124 -11z
m136 -82 c0 -42 -9 -46 -116 -46 -77 0 -84 2 -84 20 0 11 7 20 15 20 18 0 20
26 3 33 -7 3 31 6 85 6 l97 1 0 -34z"/>
<path d="M10968 7751 c-5 -13 -6 -43 -2 -66 l6 -42 101 -6 c64 -3 107 -2 114
5 14 11 17 95 5 115 -5 7 -46 13 -111 15 -101 3 -104 3 -113 -21z m195 -25 c3
-8 2 -27 -2 -43 -7 -27 -9 -28 -74 -26 -37 1 -71 4 -76 7 -5 3 -11 22 -13 41
l-4 35 82 0 c61 0 83 -4 87 -14z"/>
<path d="M6741 7771 c-16 -10 -27 -97 -17 -135 6 -26 7 -26 116 -26 98 0 110
2 120 19 14 27 13 124 -2 139 -14 14 -195 17 -217 3z m197 -38 c3 -19 -1 -23
-22 -23 -14 0 -28 5 -31 10 -4 6 -23 8 -43 5 -20 -3 -43 -6 -49 -7 -15 -2 -18
-18 -3 -18 6 0 10 -7 10 -15 0 -12 13 -15 60 -15 33 0 60 -4 60 -10 0 -6 -33
-10 -80 -10 l-80 0 0 45 c0 28 5 47 14 52 8 4 48 8 88 8 68 0 73 -2 76 -22z"/>
<path d="M5200 6455 c-11 -20 -11 -28 -1 -38 9 -9 14 -9 20 1 13 21 60 22 71
1 11 -20 13 -150 4 -198 -6 -27 -11 -31 -39 -31 -29 0 -32 3 -27 22 3 15 2 19
-7 14 -6 -4 -18 -2 -26 4 -13 11 -15 6 -15 -28 0 -46 25 -72 70 -72 55 0 60
13 62 166 3 128 1 144 -16 163 -28 31 -79 28 -96 -4z"/>
<path d="M11786 6175 c-13 -35 -7 -52 20 -52 22 0 25 3 22 31 -3 34 -31 48
-42 21z"/>
<path d="M6483 5951 c-211 -73 -279 -320 -138 -507 13 -16 52 -45 87 -64 57
-31 71 -34 145 -34 70 0 90 4 137 28 62 31 113 83 148 148 32 60 32 193 -1
256 -47 91 -115 146 -220 178 -60 18 -95 17 -158 -5z m95 -78 c-10 -2 -26 -2
-35 0 -10 3 -2 5 17 5 19 0 27 -2 18 -5z m84 -60 c55 -30 88 -80 88 -135 0
-31 -4 -35 -52 -53 -40 -15 -78 -20 -155 -20 -56 0 -104 -3 -108 -7 -13 -13
48 -67 93 -82 70 -24 101 -20 151 19 24 19 38 35 32 35 -8 0 -7 5 3 16 9 8 16
22 16 30 0 8 4 13 9 9 6 -3 6 -18 -1 -38 -36 -105 -190 -132 -284 -50 -91 80
-69 235 40 283 60 27 110 25 168 -7z m142 -211 c-24 -135 -157 -210 -298 -171
-48 13 -123 84 -132 124 -6 27 -3 25 32 -22 93 -123 265 -127 350 -7 25 34 34
58 34 86 0 24 4 37 10 33 6 -4 8 -22 4 -43z"/>
<path d="M10514 5946 c-131 -41 -224 -164 -224 -295 0 -124 91 -258 203 -300
16 -6 65 -11 110 -11 146 0 238 65 288 203 41 112 16 222 -69 310 -92 95 -198
127 -308 93z m184 -85 c78 -40 123 -111 130 -202 4 -57 1 -75 -18 -111 -28
-55 -56 -85 -100 -108 -61 -31 -103 -34 -177 -11 -72 21 -107 50 -137 108 -21
42 -22 170 -1 197 8 11 15 15 15 9 0 -7 -4 -15 -10 -18 -16 -10 -12 -121 6
-163 34 -83 98 -125 194 -125 53 -1 72 4 105 25 59 38 81 67 99 127 14 49 14
59 -1 118 -24 97 -97 159 -194 166 l-54 3 53 2 c35 1 65 -4 90 -17z m-228 -34
c0 -2 -10 -12 -22 -23 l-23 -19 19 23 c18 21 26 27 26 19z m192 -7 c44 -13 93
-66 107 -116 13 -48 -5 -136 -34 -168 -50 -54 -168 -59 -238 -9 -58 40 -85
106 -68 163 6 22 26 57 44 77 52 59 109 75 189 53z"/>
<path d="M10730 5630 c-8 -5 -45 -10 -82 -10 -39 0 -68 -4 -68 -10 0 -6 32
-10 75 -10 52 0 75 -4 75 -12 0 -17 16 2 25 30 7 24 -1 28 -25 12z"/>
<path d="M10450 5615 c0 -1 6 -14 14 -29 44 -86 186 -108 255 -40 13 13 20 24
15 25 -5 0 -44 2 -88 4 -54 3 -84 9 -96 20 -11 10 -23 14 -28 11 -5 -3 -23 -1
-41 4 -17 5 -31 7 -31 5z"/>
<path d="M6533 9068 c-21 -36 -34 -68 -29 -68 7 0 57 93 52 97 -2 2 -12 -11
-23 -29z"/>
<path d="M2620 4587 l-25 -13 -3 -662 -2 -661 25 -17 c21 -14 49 -16 193 -12
204 6 256 21 343 105 105 100 147 238 156 513 8 241 -20 438 -78 552 -55 107
-161 178 -295 198 -99 14 -284 12 -314 -3z m404 -76 c62 -29 106 -61 106 -77
0 -6 6 -14 13 -17 17 -6 65 -106 83 -171 23 -87 37 -274 30 -412 -13 -259 -56
-399 -148 -475 -80 -68 -129 -81 -310 -87 l-158 -4 0 637 0 637 168 -4 c150
-3 172 -6 216 -27z"/>
<path d="M2815 3914 l0 -459 35 -5 c61 -9 112 7 152 49 58 61 69 114 75 354
11 398 -30 501 -202 514 l-60 5 0 -458z m133 380 c58 -40 82 -157 82 -387 -1
-254 -28 -365 -96 -393 -69 -29 -64 -57 -64 391 l0 405 28 0 c15 0 38 -7 50
-16z"/>
<path d="M3579 4593 c-9 -2 -21 -14 -28 -26 -6 -12 -45 -247 -86 -522 -129
-854 -119 -773 -100 -801 15 -23 20 -24 125 -24 103 0 110 1 124 23 8 12 26
101 41 197 37 252 34 240 59 240 20 0 22 -11 49 -207 16 -124 34 -216 42 -230
14 -21 22 -23 116 -23 103 0 132 7 143 36 8 21 -161 1282 -175 1311 -6 12 -21
24 -33 27 -24 6 -252 6 -277 -1z m271 -70 c0 -10 14 -115 30 -233 25 -191 90
-679 104 -785 3 -22 11 -81 19 -132 11 -79 11 -93 -1 -98 -22 -8 -162 -6 -162
3 0 5 -11 96 -25 203 -14 107 -27 206 -28 221 -1 16 -4 28 -7 29 -10 1 -115 1
-126 0 -6 -1 -18 -55 -29 -128 -9 -71 -25 -173 -34 -228 l-17 -100 -82 -3 -82
-3 0 28 c0 15 9 87 20 158 11 72 33 222 50 334 17 112 35 229 40 260 11 61 16
93 24 161 4 25 13 86 20 135 8 50 18 114 21 143 l7 52 129 0 c116 0 129 -2
129 -17z"/>
<path d="M3710 4173 c0 -13 -29 -212 -36 -246 -6 -27 -4 -28 33 -26 21 1 41 4
44 5 7 4 -27 263 -35 271 -3 4 -6 2 -6 -4z"/>
<path d="M4190 4593 c-33 -12 -40 -36 -40 -144 0 -81 4 -109 14 -119 11 -8 70
-11 200 -10 102 0 186 -1 186 -4 0 -3 -21 -49 -46 -103 -25 -54 -60 -127 -77
-163 -16 -36 -86 -182 -154 -324 l-123 -259 0 -107 c0 -91 3 -109 18 -123 17
-15 55 -17 338 -17 273 0 323 2 342 16 20 14 22 23 22 124 0 146 9 140 -222
140 -98 0 -178 2 -178 4 0 3 30 67 66 143 36 76 126 267 201 425 l135 287 -4
105 c-2 69 -7 110 -16 118 -10 10 -86 13 -330 15 -174 1 -324 -1 -332 -4z
m630 -138 c0 -71 -4 -94 -24 -133 -14 -26 -41 -83 -61 -127 -21 -44 -66 -140
-101 -213 -35 -73 -64 -136 -64 -140 0 -5 -6 -14 -12 -20 -7 -7 -13 -16 -14
-20 0 -8 -28 -68 -102 -222 -31 -63 -56 -119 -57 -123 0 -5 90 -8 201 -7 110
0 208 -2 217 -6 24 -9 25 -159 1 -168 -9 -3 -148 -6 -310 -6 l-294 0 0 86 c0
75 4 94 31 153 159 338 210 444 218 451 3 3 6 10 6 15 0 6 22 55 49 110 26 55
67 141 90 190 l43 90 -219 3 -219 2 2 85 2 85 308 0 309 0 0 -85z"/>
<path d="M4990 4587 c-24 -12 -25 -16 -28 -126 -2 -75 1 -118 9 -127 9 -11 51
-14 200 -14 104 0 189 -2 189 -4 0 -6 -51 -116 -125 -271 -37 -77 -79 -165
-92 -195 -14 -30 -61 -129 -104 -219 l-79 -164 0 -108 c0 -100 2 -109 22 -123
34 -24 642 -24 676 0 20 14 22 23 22 124 0 146 9 140 -222 140 -98 0 -178 2
-178 4 0 1 66 142 146 312 283 600 254 527 254 638 0 90 -2 99 -25 121 l-24
25 -308 0 c-228 0 -314 -4 -333 -13z m640 -133 c0 -72 -4 -94 -24 -133 -46
-88 -136 -281 -136 -292 0 -5 -5 -7 -12 -3 -6 4 -8 3 -4 -4 3 -6 -27 -80 -68
-164 -131 -272 -186 -389 -186 -399 0 -5 87 -9 215 -9 l215 0 0 -90 0 -90
-307 2 -308 3 -3 82 c-3 74 0 88 29 150 59 127 111 238 170 361 33 68 59 127
59 131 0 5 7 14 15 21 8 6 14 15 13 18 -2 7 9 31 93 210 27 56 49 107 49 112
0 6 -82 10 -215 10 l-215 0 0 85 0 85 310 0 310 0 0 -86z"/>
<path d="M5790 4587 l-25 -13 -3 -659 -2 -660 21 -17 c19 -16 49 -18 293 -18
230 0 275 2 294 16 20 14 22 23 22 124 0 144 6 140 -197 140 l-153 0 0 525 0
526 -25 24 c-22 23 -32 25 -112 25 -51 0 -99 -6 -113 -13z m194 -63 c4 -10 6
-255 6 -546 l-1 -530 159 1 c87 1 166 -1 175 -5 14 -5 17 -20 17 -85 0 -73 -2
-79 -22 -84 -13 -3 -131 -4 -263 -3 l-240 3 -3 633 -2 632 84 0 c69 0 85 -3
90 -16z"/>
<path d="M6510 4594 c-40 -16 -40 -14 -40 -689 0 -619 1 -653 18 -668 15 -14
40 -17 120 -17 158 0 142 -78 142 684 0 763 14 690 -132 693 -51 1 -100 0
-108 -3z m185 -76 c3 -13 4 -297 3 -633 l-3 -610 -87 -3 -88 -3 0 636 0 635
85 0 c79 0 85 -1 90 -22z"/>
<path d="M6860 4587 l-25 -13 -3 -658 c-2 -603 -1 -661 14 -678 15 -15 33 -18
119 -18 148 0 139 -16 145 246 l5 217 73 -220 c63 -189 77 -222 98 -232 14 -6
72 -11 129 -11 96 0 105 2 119 22 14 20 16 99 16 658 0 349 -3 645 -6 657 -3
12 -19 27 -34 33 -38 16 -204 10 -222 -8 -10 -10 -14 -70 -17 -235 l-3 -222
-77 225 c-65 191 -80 227 -101 237 -33 17 -197 17 -230 0z m282 -257 c37 -113
81 -245 98 -295 16 -49 40 -121 54 -160 l25 -70 0 368 1 367 90 0 90 0 -2
-632 -3 -633 -92 -3 -92 -3 -10 33 c-6 18 -28 84 -50 146 -22 61 -37 112 -34
112 3 0 1 6 -4 13 -9 10 -70 186 -77 220 -2 7 -6 19 -9 27 -4 8 -20 53 -36
100 -16 47 -30 78 -31 70 -1 -8 -2 -172 -3 -365 l-2 -350 -87 -3 -88 -3 0 636
0 636 96 -3 97 -3 69 -205z"/>
<path d="M7910 4590 c-141 -26 -219 -117 -261 -305 -10 -44 -14 -145 -14 -380
0 -354 8 -418 63 -525 63 -120 165 -168 332 -157 107 7 149 20 201 60 89 68
118 182 119 460 0 230 10 217 -178 217 -186 0 -182 3 -182 -140 0 -118 9 -140
56 -140 23 0 24 -3 24 -62 0 -90 -14 -112 -71 -116 -45 -3 -46 -2 -65 40 -17
39 -19 68 -19 363 0 327 5 376 40 405 9 8 28 10 48 6 48 -9 59 -40 64 -176 7
-161 6 -160 143 -160 144 0 146 2 137 168 -7 132 -37 251 -80 320 -32 49 -95
98 -146 112 -53 15 -160 20 -211 10z m194 -62 c65 -20 130 -91 155 -173 21
-68 47 -285 37 -311 -4 -12 -24 -14 -88 -12 l-83 3 -6 125 c-7 172 -31 210
-132 210 -55 0 -81 -19 -104 -77 -16 -43 -18 -82 -18 -388 0 -311 2 -344 19
-388 23 -58 38 -67 115 -67 51 0 64 4 86 25 14 14 26 27 26 28 1 1 4 53 8 115
l6 112 -35 1 c-19 1 -38 1 -42 0 -12 -2 -9 167 2 174 6 3 10 3 10 -2 0 -4 42
-6 92 -3 51 3 106 4 122 2 l29 -4 -6 -191 c-6 -223 -21 -295 -74 -356 -47 -55
-111 -76 -233 -76 -79 0 -102 4 -136 22 -78 42 -139 138 -149 236 -2 18 -8 64
-14 102 -14 91 -14 447 0 555 15 127 60 267 81 254 4 -3 8 2 8 10 0 9 12 23
28 33 15 10 30 21 33 26 19 26 191 36 263 15z"/>
<path d="M8630 4587 c-24 -12 -25 -16 -28 -126 -2 -75 1 -118 9 -127 8 -10 37
-14 100 -14 l89 0 0 -530 c0 -630 -15 -570 139 -570 156 0 141 -62 144 565 l2
530 84 2 c114 2 116 5 116 138 0 87 -3 107 -18 122 -16 16 -45 18 -315 21
-227 2 -303 -1 -322 -11z m600 -133 l0 -85 -100 2 -101 2 1 -552 0 -551 -84 0
c-66 0 -85 3 -90 15 -3 9 -5 256 -3 550 l2 535 -102 0 -103 0 0 85 0 85 290 0
290 0 0 -86z"/>
<path d="M9605 4590 c-66 -14 -93 -28 -141 -72 -105 -96 -126 -190 -132 -565
-6 -414 20 -547 123 -649 61 -59 131 -84 236 -84 178 0 277 82 331 276 21 74
22 100 23 404 0 306 -1 330 -23 415 -35 137 -89 213 -182 254 -52 23 -176 34
-235 21z m193 -59 c17 -5 38 -16 46 -23 7 -7 23 -20 35 -28 11 -8 21 -21 21
-29 0 -8 3 -11 6 -8 10 9 40 -51 58 -114 46 -162 49 -630 5 -824 -38 -164
-141 -243 -301 -231 -179 13 -254 111 -280 366 -15 153 -5 555 17 650 40 176
123 249 280 250 44 0 95 -4 113 -9z"/>
<path d="M9612 4338 c-21 -21 -34 -46 -39 -77 -4 -25 -8 -194 -8 -376 0 -290
2 -334 17 -367 28 -58 43 -68 104 -68 72 0 87 9 110 67 17 44 19 77 19 383 0
363 -5 402 -52 446 -20 18 -37 24 -73 24 -40 0 -52 -5 -78 -32z m123 -41 c27
-42 37 -177 33 -450 -4 -223 -7 -268 -22 -304 -17 -40 -21 -43 -55 -43 -33 0
-39 4 -56 38 -17 33 -20 67 -23 319 -5 378 9 463 78 463 20 0 35 -8 45 -23z"/>
<path d="M10160 4587 l-25 -13 -3 -454 c-3 -490 4 -584 49 -707 47 -124 158
-193 310 -193 179 0 277 82 331 276 21 75 22 102 26 558 4 530 4 531 -54 542
-53 10 -191 1 -206 -14 -10 -10 -14 -121 -18 -505 -5 -447 -7 -496 -24 -534
-17 -40 -21 -43 -55 -43 -33 0 -40 4 -57 38 -18 35 -19 69 -24 534 -3 273 -7
498 -10 501 -32 29 -192 38 -240 14z m202 -539 c3 -440 5 -497 20 -530 27 -57
43 -68 103 -68 73 0 84 6 108 59 21 45 22 60 25 539 l3 492 90 0 89 0 0 -402
c0 -484 -12 -622 -62 -722 -53 -105 -141 -152 -270 -142 -175 13 -253 111
-278 350 -5 50 -10 277 -10 504 l0 412 89 0 90 0 3 -492z"/>
<path d="M10960 4587 l-25 -13 -3 -653 c-2 -573 0 -657 13 -678 15 -22 22 -23
118 -23 146 0 141 -6 147 174 l5 147 80 -150 c53 -99 88 -153 103 -160 29 -14
198 14 225 37 9 8 17 26 17 39 0 13 -56 128 -124 255 l-125 230 47 25 c148 78
233 263 203 443 -30 184 -135 298 -305 329 -84 15 -344 14 -376 -2z m450 -75
c56 -29 100 -68 127 -113 56 -91 69 -238 31 -350 -29 -87 -118 -179 -193 -199
-27 -7 -54 -15 -58 -17 -4 -3 12 -41 36 -86 24 -45 76 -140 114 -212 39 -71
83 -154 97 -184 l28 -54 -31 5 c-16 2 -28 1 -26 -3 5 -7 -53 -19 -95 -19 -21
0 -31 11 -59 68 -19 37 -63 117 -97 179 -34 61 -74 137 -89 168 -14 31 -29 55
-32 52 -2 -3 -5 -110 -6 -239 l-2 -233 -85 0 -85 0 -3 633 -2 633 192 -3 c179
-3 196 -5 238 -26z"/>
<path d="M11157 4187 l1 -182 54 -3 c73 -4 112 5 147 34 46 38 60 75 58 151
-4 133 -56 183 -189 183 l-73 0 2 -183z m165 111 c31 -21 53 -93 43 -144 -3
-20 -19 -50 -35 -66 -23 -23 -37 -28 -74 -28 l-46 0 0 129 0 129 44 -2 c23 -1
54 -9 68 -18z"/>
<path d="M12017 4590 c-186 -33 -298 -209 -284 -445 9 -148 51 -238 142 -307
52 -39 103 -55 200 -63 81 -6 95 -24 95 -116 0 -122 -39 -177 -109 -153 -27
10 -45 49 -56 127 -4 27 -13 40 -28 46 -29 11 -213 -13 -234 -30 -21 -18 -12
-136 18 -215 28 -75 102 -154 172 -185 76 -34 230 -34 304 0 58 26 130 97 162
159 49 96 63 243 36 360 -21 89 -56 152 -115 205 -57 51 -111 72 -215 82 -38
4 -76 12 -82 17 -19 15 -17 162 3 203 20 42 67 54 104 27 27 -21 37 -48 39
-103 1 -22 9 -43 21 -54 19 -17 28 -17 122 -6 132 16 142 24 135 106 -15 168
-100 291 -228 329 -65 20 -145 26 -202 16z m178 -61 c52 -14 118 -69 150 -123
21 -37 54 -152 55 -192 0 -7 -25 -15 -57 -18 -32 -4 -73 -10 -90 -13 -32 -5
-33 -5 -34 33 -1 101 -56 159 -142 151 -57 -5 -92 -34 -107 -86 -13 -48 -13
-207 1 -233 15 -28 69 -48 132 -48 29 0 73 -7 98 -15 53 -18 124 -78 113 -96
-4 -7 -3 -10 3 -6 12 8 41 -41 58 -100 57 -201 -8 -408 -151 -481 -47 -24 -52
-25 -151 -24 -163 1 -258 96 -289 293 -8 46 -9 45 99 54 l77 6 0 -41 c0 -47
31 -114 59 -130 24 -13 101 -13 134 -1 15 6 34 28 47 55 19 40 21 59 18 150
-2 87 -6 108 -23 126 -26 29 -58 41 -114 41 -115 0 -206 51 -252 140 -50 99
-60 236 -24 355 15 53 70 144 87 144 5 0 6 -5 2 -12 -4 -7 -3 -8 5 -4 6 4 9
11 6 16 -7 11 47 49 83 60 40 12 161 11 207 -1z"/>
<path d="M5809 2687 c-18 -12 -44 -38 -56 -56 -23 -34 -23 -38 -23 -357 0
-361 1 -369 68 -414 l36 -25 2231 0 2231 0 36 25 c67 45 68 53 68 414 0 319 0
324 -22 356 -13 18 -36 43 -51 54 l-28 21 -2228 3 -2228 2 -34 -23z m1331
-237 c93 -67 95 -283 2 -348 -61 -44 -137 -16 -173 62 -23 51 -25 162 -4 212
35 84 114 118 175 74z m1894 -158 c26 -97 50 -183 53 -189 3 -9 -6 -13 -25
-13 -26 0 -32 5 -42 35 -11 34 -13 35 -60 35 -47 0 -49 -1 -60 -35 -10 -29
-16 -35 -40 -35 l-28 0 24 88 c14 48 37 133 52 190 25 95 28 102 52 102 24 0
27 -8 74 -178z m-2774 128 l0 -40 -47 0 c-47 0 -48 -1 -48 -30 0 -29 1 -30 48
-30 l47 0 0 -40 0 -40 -47 0 -48 0 0 -35 0 -35 48 0 47 0 0 -40 0 -40 -75 0
-75 0 0 185 0 185 75 0 75 0 0 -40z m120 -10 c13 -27 26 -50 30 -50 4 0 17 23
29 50 20 43 26 50 52 50 16 0 29 -2 29 -4 0 -2 -18 -41 -39 -87 -44 -92 -44
-83 13 -198 20 -39 36 -73 36 -76 0 -3 -14 -5 -31 -5 -27 0 -33 6 -57 60 -15
32 -30 59 -33 60 -3 0 -17 -27 -32 -60 -23 -55 -28 -60 -56 -60 -17 0 -31 2
-31 4 0 2 20 45 44 96 l43 94 -38 84 c-22 46 -39 86 -39 88 0 2 13 4 28 4 24
0 32 -7 52 -50z m329 26 c47 -50 35 -163 -19 -191 -16 -8 -36 -15 -45 -15 -12
0 -15 -13 -15 -70 l0 -70 -30 0 -29 0 -3 185 -3 185 61 0 c51 0 64 -4 83 -24z
m131 -121 l0 -145 35 0 c34 0 35 -1 35 -40 l0 -40 -65 0 -65 0 0 185 0 185 30
0 30 0 0 -145z m557 121 c25 -22 28 -31 28 -88 0 -49 -5 -71 -22 -93 l-21 -29
34 -64 c19 -35 34 -66 34 -68 0 -2 -15 -4 -33 -4 -31 0 -35 4 -62 60 -16 33
-31 60 -34 60 -3 0 -4 -27 -3 -60 l4 -60 -36 0 -36 0 0 185 0 185 59 0 c49 0
65 -4 88 -24z m253 -16 l0 -40 -45 0 c-43 0 -45 -1 -45 -30 0 -29 2 -30 45
-30 l45 0 0 -40 0 -40 -45 0 c-45 0 -45 0 -45 -35 0 -35 0 -35 45 -35 l45 0 0
-40 0 -40 -75 0 -75 0 0 185 0 185 75 0 75 0 0 -40z m310 0 c0 -38 -2 -40 -30
-40 l-30 0 0 -145 0 -145 -30 0 -30 0 0 145 0 145 -30 0 c-28 0 -30 2 -30 40
l0 40 90 0 90 0 0 -40z m100 -30 l0 -70 40 0 40 0 0 70 0 70 30 0 30 0 0 -185
0 -185 -30 0 -30 0 0 75 0 75 -40 0 -40 0 -2 -62 c0 -35 -1 -69 -1 -76 1 -9
-10 -12 -31 -10 l-31 3 -3 170 c-1 93 0 175 2 182 3 7 19 13 36 13 l30 0 0
-70z m345 30 c0 -34 -1 -35 -42 -38 -40 -3 -43 -5 -43 -32 0 -27 3 -29 43 -32
41 -3 42 -4 42 -38 0 -34 -1 -35 -42 -38 -42 -3 -43 -4 -43 -37 0 -33 1 -34
43 -37 41 -3 42 -4 42 -38 l0 -35 -72 -3 -73 -3 0 186 0 186 73 -3 72 -3 0
-35z m277 -78 l56 -117 1 118 1 117 30 0 30 0 0 -185 0 -185 -32 0 c-32 0 -35
4 -90 118 l-56 117 -1 -117 -1 -118 -30 0 -30 0 0 185 0 185 33 0 c31 -1 34
-4 89 -118z m588 78 c0 -38 -2 -40 -30 -40 l-29 0 -3 -142 -3 -143 -27 -3 -28
-3 0 145 0 146 -30 0 c-28 0 -30 2 -30 40 l0 40 90 0 90 0 0 -40z m90 -98 c0
-137 6 -162 36 -162 7 0 20 7 28 16 13 12 16 41 16 150 l0 134 30 0 30 0 0
-146 c0 -148 -4 -169 -43 -211 -23 -26 -81 -31 -108 -10 -46 36 -54 66 -58
219 l-3 148 36 0 36 0 0 -138z m348 98 c20 -29 23 -43 19 -88 -3 -29 -14 -64
-25 -79 l-20 -27 34 -62 c19 -34 34 -65 34 -68 0 -3 -15 -6 -33 -6 -30 0 -36
5 -57 50 -36 77 -47 79 -42 9 l4 -60 -33 3 -34 3 -3 183 -2 183 67 -3 c64 -3
68 -5 91 -38z m242 0 l0 -40 -45 0 c-43 0 -45 -1 -45 -30 0 -29 2 -30 45 -30
l45 0 0 -40 0 -40 -44 0 c-40 0 -44 -2 -49 -27 -7 -39 -2 -43 49 -43 l44 0 0
-40 0 -40 -75 0 -75 0 0 185 0 185 75 0 75 0 0 -40z"/>
<path d="M7052 2383 c-59 -23 -53 -199 8 -218 51 -16 90 31 90 110 0 84 -42
131 -98 108z"/>
<path d="M8947 2298 c-3 -18 -8 -41 -12 -50 -6 -15 -2 -18 24 -18 29 0 31 2
25 28 -9 36 -23 72 -27 72 -3 0 -7 -15 -10 -32z"/>
<path d="M6630 2355 c0 -19 -1 -38 -2 -42 -1 -5 6 -9 15 -11 24 -5 42 35 28
64 -17 37 -41 31 -41 -11z"/>
<path d="M7318 2358 c-5 -45 1 -68 17 -68 16 0 35 30 35 54 0 16 -26 46 -40
46 -4 0 -10 -15 -12 -32z"/>
<path d="M9620 2340 c0 -27 4 -50 9 -50 16 0 41 31 41 50 0 19 -25 50 -41 50
-5 0 -9 -22 -9 -50z"/>
</g>
</svg>
